<svg id="calendar_2_" data-name="calendar (2)" xmlns="http://www.w3.org/2000/svg" width="23.602" height="23.602" viewBox="0 0 23.602 23.602">
  <path id="Path_58313" data-name="Path 58313" d="M20.9,64.3H2.7A2.707,2.707,0,0,1,0,61.6V45.372a2.707,2.707,0,0,1,2.7-2.7H20.9a2.707,2.707,0,0,1,2.7,2.7V61.6A2.707,2.707,0,0,1,20.9,64.3ZM2.7,44.143a1.231,1.231,0,0,0-1.229,1.229V61.6A1.231,1.231,0,0,0,2.7,62.828H20.9A1.231,1.231,0,0,0,22.127,61.6V45.372A1.231,1.231,0,0,0,20.9,44.143Zm0,0" transform="translate(0 -40.701)" fill="#fff"/>
  <path id="Path_58314" data-name="Path 58314" d="M22.864,172.143H.738a.738.738,0,0,1,0-1.475H22.864a.738.738,0,0,1,0,1.475Zm0,0" transform="translate(0 -162.801)" fill="#fff"/>
  <path id="Path_58315" data-name="Path 58315" d="M107.406,5.9a.738.738,0,0,1-.738-.738V.738a.738.738,0,0,1,1.475,0V5.163A.738.738,0,0,1,107.406,5.9Zm0,0" transform="translate(-101.751)" fill="#fff"/>
  <path id="Path_58316" data-name="Path 58316" d="M374.07,5.9a.738.738,0,0,1-.738-.738V.738a.738.738,0,0,1,1.475,0V5.163A.738.738,0,0,1,374.07,5.9Zm0,0" transform="translate(-356.122)" fill="#fff"/>
</svg>
