<svg id="calendar_2_" data-name="calendar (2)" xmlns="http://www.w3.org/2000/svg" width="30" height="30" viewBox="0 0 30 30">
  <path id="Path_58313" data-name="Path 58313" d="M26.562,70.168H3.438A3.44,3.44,0,0,1,0,66.73V46.105a3.44,3.44,0,0,1,3.438-3.437H26.562A3.44,3.44,0,0,1,30,46.105V66.73A3.44,3.44,0,0,1,26.562,70.168ZM3.438,44.543a1.565,1.565,0,0,0-1.563,1.562V66.73a1.565,1.565,0,0,0,1.563,1.563H26.562a1.565,1.565,0,0,0,1.563-1.563V46.105a1.565,1.565,0,0,0-1.563-1.562Zm0,0" transform="translate(0 -40.168)" fill="#f016b4"/>
  <path id="Path_58314" data-name="Path 58314" d="M29.062,172.543H.937a.938.938,0,0,1,0-1.875H29.062a.938.938,0,0,1,0,1.875Zm0,0" transform="translate(0 -160.668)" fill="#f016b4"/>
  <path id="Path_58315" data-name="Path 58315" d="M107.605,7.5a.938.938,0,0,1-.937-.937V.937a.938.938,0,0,1,1.875,0V6.562A.938.938,0,0,1,107.605,7.5Zm0,0" transform="translate(-100.418)" fill="#f016b4"/>
  <path id="Path_58316" data-name="Path 58316" d="M374.27,7.5a.938.938,0,0,1-.937-.937V.937a.937.937,0,0,1,1.875,0V6.562A.938.938,0,0,1,374.27,7.5Zm0,0" transform="translate(-351.457)" fill="#f016b4"/>
</svg>
