<svg xmlns="http://www.w3.org/2000/svg" width="35.984" height="28.5" viewBox="0 0 35.984 28.5">
  <g id="open-book" transform="translate(0.25 0.25)">
    <g id="Group_14210" data-name="Group 14210">
      <g id="Group_14209" data-name="Group 14209">
        <path id="Path_58317" data-name="Path 58317" d="M34.791,56.975H31.742V54.689A.693.693,0,0,0,31.049,54H22.368a5.284,5.284,0,0,0-3.761,1.558,5.343,5.343,0,0,0-.865,1.134,5.346,5.346,0,0,0-.865-1.134A5.284,5.284,0,0,0,13.116,54H7.794l-.032,0-.032,0h-3.3a.693.693,0,0,0-.693.693v2.286H.693A.693.693,0,0,0,0,57.668V81.3a.693.693,0,0,0,.693.693h34.1a.693.693,0,0,0,.693-.693V57.668A.693.693,0,0,0,34.791,56.975ZM1.386,80.608V58.361H3.742V76.866a.693.693,0,0,0,.693.693h8.68a4.043,4.043,0,0,1,2.8,1.071,3.6,3.6,0,0,1,1.074,1.979Zm15.663-2.8q-.091-.095-.186-.185a5.423,5.423,0,0,0-3.747-1.448H5.129V55.382H7.069v4.835a.693.693,0,1,0,1.386,0V55.382h4.661a3.933,3.933,0,0,1,3.933,3.933Zm1.386-18.492a3.933,3.933,0,0,1,3.933-3.933h7.988V76.173H22.368a5.423,5.423,0,0,0-3.746,1.448q-.1.091-.186.185ZM34.1,80.608H18.5a3.6,3.6,0,0,1,1.074-1.979,4.043,4.043,0,0,1,2.8-1.071h8.681a.693.693,0,0,0,.693-.693V58.361H34.1Z" transform="translate(0 -53.994)" fill="#f016b4" stroke="#f016b4" stroke-width="0.5"/>
      </g>
    </g>
    <g id="Group_14212" data-name="Group 14212" transform="translate(7.069 8.405)">
      <g id="Group_14211" data-name="Group 14211">
        <path id="Path_58318" data-name="Path 58318" d="M102.693,175.274a.693.693,0,0,0-.693.693v.05a.693.693,0,1,0,1.386,0v-.05A.693.693,0,0,0,102.693,175.274Z" transform="translate(-102 -175.274)" fill="#f016b4" stroke="#f016b4" stroke-width="0.5"/>
      </g>
    </g>
  </g>
</svg>
