<svg id="printer" xmlns="http://www.w3.org/2000/svg" width="32" height="32" viewBox="0 0 32 32">
  <path id="Path_58330" data-name="Path 58330" d="M28.667,22h-4a.667.667,0,0,1,0-1.333h4a2,2,0,0,0,2-2V9.333a2,2,0,0,0-2-2H3.333a2,2,0,0,0-2,2v9.333a2,2,0,0,0,2,2h4a.667.667,0,1,1,0,1.333h-4A3.337,3.337,0,0,1,0,18.667V9.333A3.337,3.337,0,0,1,3.333,6H28.667A3.337,3.337,0,0,1,32,9.333v9.333A3.337,3.337,0,0,1,28.667,22Z" transform="translate(0 2)" fill="#f016b4"/>
  <path id="Path_58331" data-name="Path 58331" d="M16.667,21.333h-8a.667.667,0,1,1,0-1.333h8a.667.667,0,0,1,0,1.333Z" transform="translate(2.667 6.667)" fill="#f016b4"/>
  <path id="Path_58332" data-name="Path 58332" d="M16.667,19.333h-8a.667.667,0,1,1,0-1.333h8a.667.667,0,0,1,0,1.333Z" transform="translate(2.667 6)" fill="#f016b4"/>
  <path id="Path_58333" data-name="Path 58333" d="M11.333,17.333H8.667a.667.667,0,1,1,0-1.333h2.667a.667.667,0,0,1,0,1.333Z" transform="translate(2.667 5.333)" fill="#f016b4"/>
  <path id="Path_58334" data-name="Path 58334" d="M23,9.333a.667.667,0,0,1-.667-.667V3.333a2,2,0,0,0-2-2h-12a2,2,0,0,0-2,2V8.667A.667.667,0,0,1,5,8.667V3.333A3.337,3.337,0,0,1,8.333,0h12a3.337,3.337,0,0,1,3.333,3.333V8.667A.667.667,0,0,1,23,9.333Z" transform="translate(1.667)" fill="#f016b4"/>
  <path id="Path_58335" data-name="Path 58335" d="M20.333,27.667h-12A3.337,3.337,0,0,1,5,24.333V13.667A.667.667,0,0,1,5.667,13H23a.667.667,0,0,1,.667.667V24.333A3.337,3.337,0,0,1,20.333,27.667Zm-14-13.333v10a2,2,0,0,0,2,2h12a2,2,0,0,0,2-2v-10Z" transform="translate(1.667 4.333)" fill="#f016b4"/>
</svg>
