<svg xmlns="http://www.w3.org/2000/svg" width="36.73" height="36.73" viewBox="0 0 36.73 36.73">
  <g id="search_5_x" data-name="search (5)x" transform="translate(0.25 0.25)">
    <g id="Group_14942" data-name="Group 14942" transform="translate(0 0)">
      <g id="Group_14941" data-name="Group 14941" transform="translate(0 0)">
        <path id="Path_59937" data-name="Path 59937" d="M31.985,4.245A14.515,14.515,0,0,0,10.969,24.26L9.012,26.217,7.956,25.161a.708.708,0,0,0-1,0l-6.1,6.1a2.908,2.908,0,1,0,4.113,4.113l6.1-6.1a.708.708,0,0,0,0-1l-1.056-1.056,1.957-1.957A14.515,14.515,0,0,0,31.985,4.245ZM3.964,34.377a1.493,1.493,0,1,1-2.111-2.111l5.6-5.6,2.111,2.111Zm27.02-10.606a13.094,13.094,0,1,1,0-18.526A13.114,13.114,0,0,1,30.984,23.771Z" transform="translate(0 0)" fill="#f016b4" stroke="#f016b4" stroke-width="0.5"/>
        <path id="Path_59938" data-name="Path 59938" d="M449.356,195.569a.707.707,0,1,0-.412.787A.714.714,0,0,0,449.356,195.569Z" transform="translate(-416.253 -181.199)" fill="#f016b4" stroke="#f016b4" stroke-width="0.5"/>
        <path id="Path_59939" data-name="Path 59939" d="M167.691,57.864a.708.708,0,0,0-.888.462,9.985,9.985,0,0,1-16.577,4.04A9.986,9.986,0,1,1,166.807,52.3a.708.708,0,1,0,1.35-.424,11.4,11.4,0,1,0,0,6.879A.708.708,0,0,0,167.691,57.864Z" transform="translate(-135.565 -40.797)" fill="#f016b4" stroke="#f016b4" stroke-width="0.5"/>
        <path id="Path_59940" data-name="Path 59940" d="M236.527,143.3a2.349,2.349,0,0,0,3.319,0l1.025-1.025L241.9,143.3a2.347,2.347,0,0,0,3.319-3.319l-1.025-1.025,1.025-1.025a2.347,2.347,0,1,0-3.319-3.319l-1.025,1.025-1.025-1.025a2.347,2.347,0,1,0-3.319,3.319l1.025,1.025-1.025,1.025A2.349,2.349,0,0,0,236.527,143.3Zm1-2.318,1.525-1.525a.708.708,0,0,0,0-1l-1.525-1.525a.931.931,0,0,1,1.317-1.317l1.525,1.525a.708.708,0,0,0,1,0l1.525-1.525a.931.931,0,1,1,1.317,1.317l-1.525,1.525a.708.708,0,0,0,0,1l1.525,1.525A.931.931,0,0,1,242.9,142.3l-1.525-1.525a.708.708,0,0,0-1,0l-1.525,1.525a.931.931,0,0,1-1.317-1.317Z" transform="translate(-219.15 -124.45)" fill="#f016b4" stroke="#f016b4" stroke-width="0.5"/>
      </g>
    </g>
  </g>
</svg>
