<svg xmlns="http://www.w3.org/2000/svg" width="31.056" height="22" viewBox="0 0 31.056 22">
  <g id="youtube" transform="translate(0 -59.72)">
    <g id="Group_14221" data-name="Group 14221" transform="translate(0 59.72)">
      <path id="Path_58321" data-name="Path 58321" d="M30.623,63.32a3.469,3.469,0,0,0-2.785-2.839,99.806,99.806,0,0,0-24.618,0A3.468,3.468,0,0,0,.433,63.32a63.452,63.452,0,0,0,0,14.8A3.467,3.467,0,0,0,3.22,80.958a99.807,99.807,0,0,0,24.618,0,3.467,3.467,0,0,0,2.785-2.839A63.443,63.443,0,0,0,30.623,63.32ZM12.94,75.9V65.544L20.7,70.721Z" transform="translate(0 -59.72)" fill="#fff"/>
    </g>
  </g>
</svg>
