<svg id="search" xmlns="http://www.w3.org/2000/svg" width="27.734" height="27.734" viewBox="0 0 27.734 27.734">
  <path id="Path_58336" data-name="Path 58336" d="M6.147,147.538l-.965,3.6-3.528.075a13.891,13.891,0,0,1-.1-12.949h0l3.141.576,1.376,3.122a8.276,8.276,0,0,0,.078,5.572Z" transform="translate(0 -130.778)" fill="#fbbb00"/>
  <path id="Path_58337" data-name="Path 58337" d="M274.948,208.176a13.862,13.862,0,0,1-4.943,13.4h0l-3.957-.2-.56-3.5a8.265,8.265,0,0,0,3.556-4.22h-7.415v-5.486h13.32Z" transform="translate(-247.456 -196.899)" fill="#518ef8"/>
  <path id="Path_58338" data-name="Path 58338" d="M51.4,317.329h0a13.872,13.872,0,0,1-20.9-4.242L35,309.409a8.247,8.247,0,0,0,11.885,4.223Z" transform="translate(-28.856 -292.649)" fill="#28b446"/>
  <path id="Path_58339" data-name="Path 58339" d="M49.792,3.192,45.3,6.87a8.246,8.246,0,0,0-12.157,4.318l-4.518-3.7h0a13.87,13.87,0,0,1,21.168-4.3Z" transform="translate(-27.073)" fill="#f14336"/>
</svg>
