<svg xmlns="http://www.w3.org/2000/svg" width="26.687" height="19.147" viewBox="0 0 26.687 19.147">
  <g id="Date" transform="translate(-1.558 -412)">
    <g id="Group_14672" data-name="Group 14672">
      <g id="book_2_" data-name="book (2)" transform="translate(1.558 353.697)">
        <g id="Group_14671" data-name="Group 14671" transform="translate(0 58.303)">
          <path id="Path_59654" data-name="Path 59654" d="M26.17,59.9H24.411v-.6a.517.517,0,0,0-.372-.517,14.572,14.572,0,0,0-3.73-.476,9.62,9.62,0,0,0-6.973,2.586A9.519,9.519,0,0,0,6.363,58.3a14.572,14.572,0,0,0-3.73.476.517.517,0,0,0-.372.517v.595H.517A.517.517,0,0,0,0,60.409V76.931a.516.516,0,0,0,.771.45,18.238,18.238,0,0,1,12.446-1.035h.124a.518.518,0,0,0,.124,0,17.929,17.929,0,0,1,12.446,1.035.517.517,0,0,0,.776-.445V60.414A.517.517,0,0,0,26.17,59.9ZM1.035,76.109V60.931H2.271V73.9a.517.517,0,0,0,.595.517A22.638,22.638,0,0,1,6.1,74.164a13.419,13.419,0,0,1,4.418.667A19.017,19.017,0,0,0,1.035,76.109ZM6.1,73.134a22.758,22.758,0,0,0-2.814.181V59.705a14.267,14.267,0,0,1,3.068-.341A8.446,8.446,0,0,1,12.808,61.9l.016,12.886A12.092,12.092,0,0,0,6.1,73.134ZM13.858,61.9a8.523,8.523,0,0,1,6.456-2.535,14.33,14.33,0,0,1,3.068.341v13.61a22.751,22.751,0,0,0-2.8-.186,12.193,12.193,0,0,0-6.725,1.65Zm11.789,14.21a19.021,19.021,0,0,0-9.5-1.278,13.45,13.45,0,0,1,4.438-.667,22.631,22.631,0,0,1,3.254.253.517.517,0,0,0,.595-.517V60.931h1.236Z" transform="translate(0 -58.303)" fill="#fff"/>
        </g>
      </g>
    </g>
  </g>
</svg>
