<svg xmlns="http://www.w3.org/2000/svg" width="27.035" height="22" viewBox="0 0 27.035 22">
  <path id="_x30_4.Twitter" d="M36.935,20.1a11.37,11.37,0,0,1-3.177.879,5.406,5.406,0,0,0,2.433-3.075,11.672,11.672,0,0,1-3.515,1.352,5.547,5.547,0,0,0-9.6,3.785,5.067,5.067,0,0,0,.135,1.25,15.6,15.6,0,0,1-11.389-5.779,5.562,5.562,0,0,0,1.69,7.4,5.321,5.321,0,0,1-2.5-.676,5.6,5.6,0,0,0,4.427,5.508,6.083,6.083,0,0,1-2.5.1A5.565,5.565,0,0,0,18.112,34.7,11.166,11.166,0,0,1,9.9,37a15.634,15.634,0,0,0,8.516,2.5c10.206,0,15.748-8.449,15.748-15.748a4.991,4.991,0,0,0-.034-.71A11,11,0,0,0,36.935,20.1Z" transform="translate(-9.9 -17.5)" fill="#fff"/>
</svg>
